<svg xmlns="http://www.w3.org/2000/svg" xmlns:xlink="http://www.w3.org/1999/xlink" width="500" zoomAndPan="magnify" viewBox="0 0 375 374.999991" height="500" preserveAspectRatio="xMidYMid meet" version="1.0"><defs><g/><clipPath id="550f5c564d"><path d="M 143 153 L 251.542969 153 L 251.542969 190.210938 L 143 190.210938 Z M 143 153 " clip-rule="nonzero"/></clipPath><clipPath id="591726dddf"><path d="M 119.558594 119.710938 L 228 119.710938 L 228 157 L 119.558594 157 Z M 119.558594 119.710938 " clip-rule="nonzero"/></clipPath></defs><g fill="#0092e6" fill-opacity="1"><g transform="translate(59.788909, 232.93516)"><g><path d="M 11.265625 -19.6875 C 12.640625 -19.6875 13.984375 -19.421875 15.296875 -18.890625 C 16.617188 -18.359375 17.757812 -17.617188 18.71875 -16.671875 L 16.78125 -14.265625 C 16.070312 -15.023438 15.226562 -15.628906 14.25 -16.078125 C 13.28125 -16.523438 12.300781 -16.75 11.3125 -16.75 C 9.351562 -16.75 7.695312 -16.082031 6.34375 -14.75 C 4.988281 -13.414062 4.3125 -11.785156 4.3125 -9.859375 C 4.3125 -7.921875 4.988281 -6.28125 6.34375 -4.9375 C 7.695312 -3.601562 9.351562 -2.9375 11.3125 -2.9375 C 13.351562 -2.9375 15.175781 -3.710938 16.78125 -5.265625 L 18.75 -3.078125 C 17.738281 -2.085938 16.5625 -1.300781 15.21875 -0.71875 C 13.875 -0.144531 12.519531 0.140625 11.15625 0.140625 C 8.269531 0.140625 5.847656 -0.816406 3.890625 -2.734375 C 1.929688 -4.648438 0.953125 -7.015625 0.953125 -9.828125 C 0.953125 -12.609375 1.945312 -14.945312 3.9375 -16.84375 C 5.925781 -18.738281 8.367188 -19.6875 11.265625 -19.6875 Z M 11.265625 -19.6875 "/></g></g></g><g fill="#0092e6" fill-opacity="1"><g transform="translate(80.747951, 232.93516)"><g><path d="M 10.625 -6.53125 L 10.625 0 L 7.34375 0 L 7.34375 -6.421875 L 0.03125 -19.609375 L 3.359375 -19.609375 L 8.96875 -10.0625 L 14.453125 -19.609375 L 17.8125 -19.609375 Z M 10.625 -6.53125 "/></g></g></g><g fill="#0092e6" fill-opacity="1"><g transform="translate(100.025822, 232.93516)"><g><path d="M 2.578125 -19.609375 L 11.09375 -19.609375 C 13.125 -19.609375 14.726562 -19.171875 15.90625 -18.296875 C 17.082031 -17.429688 17.671875 -16.234375 17.671875 -14.703125 C 17.671875 -13.609375 17.363281 -12.671875 16.75 -11.890625 C 16.132812 -11.117188 15.296875 -10.601562 14.234375 -10.34375 C 15.535156 -10.113281 16.5625 -9.5625 17.3125 -8.6875 C 18.0625 -7.8125 18.4375 -6.707031 18.4375 -5.375 C 18.4375 -3.695312 17.800781 -2.378906 16.53125 -1.421875 C 15.257812 -0.472656 13.515625 0 11.296875 0 L 2.578125 0 Z M 5.890625 -16.671875 L 5.890625 -11.484375 L 10.921875 -11.484375 C 11.972656 -11.484375 12.796875 -11.71875 13.390625 -12.1875 C 13.984375 -12.65625 14.28125 -13.300781 14.28125 -14.125 C 14.28125 -14.945312 13.984375 -15.578125 13.390625 -16.015625 C 12.804688 -16.453125 11.984375 -16.671875 10.921875 -16.671875 Z M 5.890625 -8.578125 L 5.890625 -2.9375 L 10.921875 -2.9375 C 12.234375 -2.9375 13.25 -3.179688 13.96875 -3.671875 C 14.6875 -4.171875 15.046875 -4.878906 15.046875 -5.796875 C 15.046875 -6.660156 14.679688 -7.335938 13.953125 -7.828125 C 13.222656 -8.328125 12.210938 -8.578125 10.921875 -8.578125 Z M 5.890625 -8.578125 "/></g></g></g><g fill="#0092e6" fill-opacity="1"><g transform="translate(121.237047, 232.93516)"><g><path d="M 16.578125 -16.640625 L 5.890625 -16.640625 L 5.890625 -11.34375 L 15.46875 -11.34375 L 15.46875 -8.375 L 5.890625 -8.375 L 5.890625 -2.96875 L 16.921875 -2.96875 L 16.921875 0 L 2.578125 0 L 2.578125 -19.609375 L 16.578125 -19.609375 Z M 16.578125 -16.640625 "/></g></g></g><g fill="#0092e6" fill-opacity="1"><g transform="translate(141.047283, 232.93516)"><g><path d="M 15.015625 0 L 11.4375 -5.9375 C 11.25 -5.914062 10.945312 -5.90625 10.53125 -5.90625 L 5.890625 -5.90625 L 5.890625 0 L 2.578125 0 L 2.578125 -19.609375 L 10.53125 -19.609375 C 13.03125 -19.609375 14.972656 -19.023438 16.359375 -17.859375 C 17.742188 -16.691406 18.4375 -15.046875 18.4375 -12.921875 C 18.4375 -11.347656 18.082031 -10.019531 17.375 -8.9375 C 16.675781 -7.851562 15.675781 -7.0625 14.375 -6.5625 L 18.765625 0 Z M 5.890625 -8.875 L 10.53125 -8.875 C 13.707031 -8.875 15.296875 -10.191406 15.296875 -12.828125 C 15.296875 -15.367188 13.707031 -16.640625 10.53125 -16.640625 L 5.890625 -16.640625 Z M 5.890625 -8.875 "/></g></g></g><g fill="#0092e6" fill-opacity="1"><g transform="translate(162.734837, 232.93516)"><g><path d="M 8.59375 -7.421875 L 1.703125 -7.421875 L 1.703125 -9.640625 L 8.59375 -9.640625 Z M 8.59375 -7.421875 "/></g></g></g><g fill="#0092e6" fill-opacity="1"><g transform="translate(174.475433, 232.93516)"><g><path d="M 2.578125 -19.609375 L 10.390625 -19.609375 C 12.859375 -19.609375 14.769531 -19.023438 16.125 -17.859375 C 17.476562 -16.691406 18.15625 -15.046875 18.15625 -12.921875 C 18.15625 -10.691406 17.476562 -8.960938 16.125 -7.734375 C 14.769531 -6.515625 12.859375 -5.90625 10.390625 -5.90625 L 5.890625 -5.90625 L 5.890625 0 L 2.578125 0 Z M 5.890625 -16.640625 L 5.890625 -8.875 L 10.25 -8.875 C 13.40625 -8.875 14.984375 -10.191406 14.984375 -12.828125 C 14.984375 -15.367188 13.40625 -16.640625 10.25 -16.640625 Z M 5.890625 -16.640625 "/></g></g></g><g fill="#0092e6" fill-opacity="1"><g transform="translate(194.762007, 232.93516)"><g><path d="M 15.015625 0 L 11.4375 -5.9375 C 11.25 -5.914062 10.945312 -5.90625 10.53125 -5.90625 L 5.890625 -5.90625 L 5.890625 0 L 2.578125 0 L 2.578125 -19.609375 L 10.53125 -19.609375 C 13.03125 -19.609375 14.972656 -19.023438 16.359375 -17.859375 C 17.742188 -16.691406 18.4375 -15.046875 18.4375 -12.921875 C 18.4375 -11.347656 18.082031 -10.019531 17.375 -8.9375 C 16.675781 -7.851562 15.675781 -7.0625 14.375 -6.5625 L 18.765625 0 Z M 5.890625 -8.875 L 10.53125 -8.875 C 13.707031 -8.875 15.296875 -10.191406 15.296875 -12.828125 C 15.296875 -15.367188 13.707031 -16.640625 10.53125 -16.640625 L 5.890625 -16.640625 Z M 5.890625 -8.875 "/></g></g></g><g fill="#0092e6" fill-opacity="1"><g transform="translate(216.449555, 232.93516)"><g><path d="M 3.953125 -16.84375 C 5.953125 -18.738281 8.414062 -19.6875 11.34375 -19.6875 C 14.28125 -19.6875 16.742188 -18.738281 18.734375 -16.84375 C 20.734375 -14.945312 21.734375 -12.597656 21.734375 -9.796875 C 21.734375 -7.003906 20.734375 -4.648438 18.734375 -2.734375 C 16.742188 -0.816406 14.28125 0.140625 11.34375 0.140625 C 8.414062 0.140625 5.953125 -0.816406 3.953125 -2.734375 C 1.953125 -4.648438 0.953125 -7.003906 0.953125 -9.796875 C 0.953125 -12.597656 1.953125 -14.945312 3.953125 -16.84375 Z M 11.375 -16.71875 C 9.425781 -16.71875 7.757812 -16.050781 6.375 -14.71875 C 5 -13.382812 4.3125 -11.742188 4.3125 -9.796875 C 4.3125 -7.859375 5.003906 -6.210938 6.390625 -4.859375 C 7.785156 -3.503906 9.445312 -2.828125 11.375 -2.828125 C 13.300781 -2.828125 14.941406 -3.503906 16.296875 -4.859375 C 17.660156 -6.210938 18.34375 -7.859375 18.34375 -9.796875 C 18.34375 -11.742188 17.660156 -13.382812 16.296875 -14.71875 C 14.941406 -16.050781 13.300781 -16.71875 11.375 -16.71875 Z M 11.375 -16.71875 "/></g></g></g><g fill="#0092e6" fill-opacity="1"><g transform="translate(240.574809, 232.93516)"><g><path d="M 15.96875 -16.640625 L 9.75 -16.640625 L 9.75 0 L 6.4375 0 L 6.4375 -16.640625 L 0.25 -16.640625 L 0.25 -19.609375 L 15.96875 -19.609375 Z M 15.96875 -16.640625 "/></g></g></g><g fill="#0092e6" fill-opacity="1"><g transform="translate(258.227548, 232.93516)"><g><path d="M 16.578125 -16.640625 L 5.890625 -16.640625 L 5.890625 -11.34375 L 15.46875 -11.34375 L 15.46875 -8.375 L 5.890625 -8.375 L 5.890625 -2.96875 L 16.921875 -2.96875 L 16.921875 0 L 2.578125 0 L 2.578125 -19.609375 L 16.578125 -19.609375 Z M 16.578125 -16.640625 "/></g></g></g><g fill="#0092e6" fill-opacity="1"><g transform="translate(278.037796, 232.93516)"><g><path d="M 11.265625 -19.6875 C 12.640625 -19.6875 13.984375 -19.421875 15.296875 -18.890625 C 16.617188 -18.359375 17.757812 -17.617188 18.71875 -16.671875 L 16.78125 -14.265625 C 16.070312 -15.023438 15.226562 -15.628906 14.25 -16.078125 C 13.28125 -16.523438 12.300781 -16.75 11.3125 -16.75 C 9.351562 -16.75 7.695312 -16.082031 6.34375 -14.75 C 4.988281 -13.414062 4.3125 -11.785156 4.3125 -9.859375 C 4.3125 -7.921875 4.988281 -6.28125 6.34375 -4.9375 C 7.695312 -3.601562 9.351562 -2.9375 11.3125 -2.9375 C 13.351562 -2.9375 15.175781 -3.710938 16.78125 -5.265625 L 18.75 -3.078125 C 17.738281 -2.085938 16.5625 -1.300781 15.21875 -0.71875 C 13.875 -0.144531 12.519531 0.140625 11.15625 0.140625 C 8.269531 0.140625 5.847656 -0.816406 3.890625 -2.734375 C 1.929688 -4.648438 0.953125 -7.015625 0.953125 -9.828125 C 0.953125 -12.609375 1.945312 -14.945312 3.9375 -16.84375 C 5.925781 -18.738281 8.367188 -19.6875 11.265625 -19.6875 Z M 11.265625 -19.6875 "/></g></g></g><g fill="#0092e6" fill-opacity="1"><g transform="translate(298.996848, 232.93516)"><g><path d="M 15.96875 -16.640625 L 9.75 -16.640625 L 9.75 0 L 6.4375 0 L 6.4375 -16.640625 L 0.25 -16.640625 L 0.25 -19.609375 L 15.96875 -19.609375 Z M 15.96875 -16.640625 "/></g></g></g><g clip-path="url(#550f5c564d)"><path fill="#a6a6a6" d="M 184.179688 178.015625 C 168.398438 178.015625 154.152344 168.421875 143.992188 159.054688 C 152.367188 169.285156 172.339844 190.210938 195.644531 190.210938 C 226.492188 190.210938 251.5 153.550781 251.5 153.550781 L 229.929688 153.550781 C 219.828125 164.214844 203.101562 178.015625 184.179688 178.015625 " fill-opacity="1" fill-rule="nonzero"/></g><g clip-path="url(#591726dddf)"><path fill="#d9d9d9" d="M 186.910156 131.90625 C 202.6875 131.90625 216.9375 141.5 227.09375 150.867188 C 218.722656 140.636719 198.75 119.710938 175.445312 119.710938 C 144.59375 119.710938 119.585938 156.371094 119.585938 156.371094 L 141.15625 156.371094 C 151.261719 145.707031 167.984375 131.90625 186.910156 131.90625 " fill-opacity="1" fill-rule="nonzero"/></g><path fill="#0092e6" d="M 192.617188 138.953125 C 193.871094 140.101562 194.660156 141.75 194.660156 143.582031 C 194.660156 147.054688 191.835938 149.871094 188.347656 149.871094 C 184.863281 149.871094 182.035156 147.054688 182.035156 143.582031 C 182.035156 140.109375 184.863281 137.296875 188.347656 137.296875 C 188.421875 137.296875 188.496094 137.300781 188.570312 137.300781 C 187.011719 136.875 185.367188 136.644531 183.671875 136.644531 C 173.507812 136.644531 165.269531 144.851562 165.269531 154.976562 C 165.269531 165.101562 173.507812 173.304688 183.671875 173.304688 C 193.835938 173.304688 202.078125 165.101562 202.078125 154.976562 C 202.078125 148.085938 198.257812 142.082031 192.617188 138.953125 " fill-opacity="1" fill-rule="nonzero"/><g fill="#d9d9d9" fill-opacity="1"><g transform="translate(144.823237, 253.107492)"><g><path d="M 1.953125 0 L 0.953125 0 L 0.953125 -7.5625 L 1.953125 -7.5625 Z M 1.953125 0 "/></g></g></g><g fill="#d9d9d9" fill-opacity="1"><g transform="translate(150.197544, 253.107492)"><g><path d="M 6.109375 -6.75 L 3.671875 -6.75 L 3.671875 0 L 2.6875 0 L 2.6875 -6.75 L 0.25 -6.75 L 0.25 -7.5625 L 6.109375 -7.5625 Z M 6.109375 -6.75 "/></g></g></g><g fill="#d9d9d9" fill-opacity="1"><g transform="translate(159.026938, 253.107492)"><g><path d="M 2.734375 -2.828125 L 0.1875 -2.828125 L 0.1875 -3.609375 L 2.734375 -3.609375 Z M 2.734375 -2.828125 "/></g></g></g><g fill="#d9d9d9" fill-opacity="1"><g transform="translate(164.442809, 253.107492)"><g><path d="M 3.109375 -3.375 C 2.253906 -3.613281 1.628906 -3.910156 1.234375 -4.265625 C 0.847656 -4.628906 0.65625 -5.078125 0.65625 -5.609375 C 0.65625 -6.203125 0.890625 -6.691406 1.359375 -7.078125 C 1.835938 -7.472656 2.457031 -7.671875 3.21875 -7.671875 C 3.738281 -7.671875 4.203125 -7.566406 4.609375 -7.359375 C 5.023438 -7.160156 5.34375 -6.882812 5.5625 -6.53125 C 5.78125 -6.175781 5.890625 -5.789062 5.890625 -5.375 L 4.890625 -5.375 C 4.890625 -5.832031 4.742188 -6.191406 4.453125 -6.453125 C 4.160156 -6.710938 3.75 -6.84375 3.21875 -6.84375 C 2.726562 -6.84375 2.34375 -6.734375 2.0625 -6.515625 C 1.789062 -6.304688 1.65625 -6.007812 1.65625 -5.625 C 1.65625 -5.3125 1.785156 -5.046875 2.046875 -4.828125 C 2.316406 -4.617188 2.765625 -4.425781 3.390625 -4.25 C 4.015625 -4.070312 4.503906 -3.875 4.859375 -3.65625 C 5.210938 -3.445312 5.472656 -3.203125 5.640625 -2.921875 C 5.816406 -2.640625 5.90625 -2.304688 5.90625 -1.921875 C 5.90625 -1.304688 5.664062 -0.8125 5.1875 -0.4375 C 4.71875 -0.0703125 4.082031 0.109375 3.28125 0.109375 C 2.757812 0.109375 2.269531 0.0078125 1.8125 -0.1875 C 1.363281 -0.394531 1.019531 -0.671875 0.78125 -1.015625 C 0.539062 -1.359375 0.421875 -1.75 0.421875 -2.1875 L 1.421875 -2.1875 C 1.421875 -1.726562 1.585938 -1.367188 1.921875 -1.109375 C 2.265625 -0.847656 2.71875 -0.71875 3.28125 -0.71875 C 3.800781 -0.71875 4.203125 -0.820312 4.484375 -1.03125 C 4.765625 -1.25 4.90625 -1.539062 4.90625 -1.90625 C 4.90625 -2.28125 4.773438 -2.566406 4.515625 -2.765625 C 4.253906 -2.972656 3.785156 -3.175781 3.109375 -3.375 Z M 3.109375 -3.375 "/></g></g></g><g fill="#d9d9d9" fill-opacity="1"><g transform="translate(173.235834, 253.107492)"><g><path d="M 5.15625 -3.5 L 1.875 -3.5 L 1.875 -0.8125 L 5.6875 -0.8125 L 5.6875 0 L 0.875 0 L 0.875 -7.5625 L 5.625 -7.5625 L 5.625 -6.75 L 1.875 -6.75 L 1.875 -4.3125 L 5.15625 -4.3125 Z M 5.15625 -3.5 "/></g></g></g><g fill="#d9d9d9" fill-opacity="1"><g transform="translate(181.763882, 253.107492)"><g><path d="M 6.4375 -2.40625 C 6.34375 -1.601562 6.046875 -0.984375 5.546875 -0.546875 C 5.054688 -0.109375 4.398438 0.109375 3.578125 0.109375 C 2.679688 0.109375 1.960938 -0.207031 1.421875 -0.84375 C 0.890625 -1.488281 0.625 -2.347656 0.625 -3.421875 L 0.625 -4.15625 C 0.625 -4.863281 0.75 -5.484375 1 -6.015625 C 1.25 -6.546875 1.601562 -6.953125 2.0625 -7.234375 C 2.519531 -7.523438 3.050781 -7.671875 3.65625 -7.671875 C 4.46875 -7.671875 5.113281 -7.445312 5.59375 -7 C 6.082031 -6.550781 6.363281 -5.929688 6.4375 -5.140625 L 5.4375 -5.140625 C 5.351562 -5.734375 5.164062 -6.164062 4.875 -6.4375 C 4.582031 -6.707031 4.175781 -6.84375 3.65625 -6.84375 C 3.019531 -6.84375 2.519531 -6.609375 2.15625 -6.140625 C 1.800781 -5.671875 1.625 -5 1.625 -4.125 L 1.625 -3.390625 C 1.625 -2.578125 1.796875 -1.925781 2.140625 -1.4375 C 2.484375 -0.957031 2.960938 -0.71875 3.578125 -0.71875 C 4.128906 -0.71875 4.550781 -0.84375 4.84375 -1.09375 C 5.144531 -1.34375 5.34375 -1.78125 5.4375 -2.40625 Z M 6.4375 -2.40625 "/></g></g></g><g fill="#d9d9d9" fill-opacity="1"><g transform="translate(191.169989, 253.107492)"><g><path d="M 6.203125 -7.5625 L 6.203125 -2.421875 C 6.203125 -1.703125 5.976562 -1.113281 5.53125 -0.65625 C 5.082031 -0.207031 4.476562 0.0390625 3.71875 0.09375 L 3.453125 0.109375 C 2.628906 0.109375 1.96875 -0.113281 1.46875 -0.5625 C 0.976562 -1.007812 0.734375 -1.625 0.734375 -2.40625 L 0.734375 -7.5625 L 1.71875 -7.5625 L 1.71875 -2.4375 C 1.71875 -1.894531 1.867188 -1.472656 2.171875 -1.171875 C 2.472656 -0.867188 2.898438 -0.71875 3.453125 -0.71875 C 4.015625 -0.71875 4.445312 -0.863281 4.75 -1.15625 C 5.050781 -1.457031 5.203125 -1.882812 5.203125 -2.4375 L 5.203125 -7.5625 Z M 6.203125 -7.5625 "/></g></g></g><g fill="#d9d9d9" fill-opacity="1"><g transform="translate(200.550118, 253.107492)"><g><path d="M 3.65625 -3.0625 L 1.875 -3.0625 L 1.875 0 L 0.875 0 L 0.875 -7.5625 L 3.375 -7.5625 C 4.226562 -7.5625 4.882812 -7.367188 5.34375 -6.984375 C 5.800781 -6.597656 6.03125 -6.035156 6.03125 -5.296875 C 6.03125 -4.816406 5.898438 -4.398438 5.640625 -4.046875 C 5.390625 -3.703125 5.039062 -3.441406 4.59375 -3.265625 L 6.359375 -0.0625 L 6.359375 0 L 5.296875 0 Z M 1.875 -3.875 L 3.40625 -3.875 C 3.90625 -3.875 4.300781 -4 4.59375 -4.25 C 4.882812 -4.507812 5.03125 -4.859375 5.03125 -5.296875 C 5.03125 -5.753906 4.890625 -6.109375 4.609375 -6.359375 C 4.328125 -6.609375 3.925781 -6.738281 3.40625 -6.75 L 1.875 -6.75 Z M 1.875 -3.875 "/></g></g></g><g fill="#d9d9d9" fill-opacity="1"><g transform="translate(209.582138, 253.107492)"><g><path d="M 1.953125 0 L 0.953125 0 L 0.953125 -7.5625 L 1.953125 -7.5625 Z M 1.953125 0 "/></g></g></g><g fill="#d9d9d9" fill-opacity="1"><g transform="translate(214.956444, 253.107492)"><g><path d="M 6.109375 -6.75 L 3.671875 -6.75 L 3.671875 0 L 2.6875 0 L 2.6875 -6.75 L 0.25 -6.75 L 0.25 -7.5625 L 6.109375 -7.5625 Z M 6.109375 -6.75 "/></g></g></g><g fill="#d9d9d9" fill-opacity="1"><g transform="translate(223.785835, 253.107492)"><g><path d="M 3.1875 -3.765625 L 5.15625 -7.5625 L 6.296875 -7.5625 L 3.6875 -2.828125 L 3.6875 0 L 2.6875 0 L 2.6875 -2.828125 L 0.078125 -7.5625 L 1.21875 -7.5625 Z M 3.1875 -3.765625 "/></g></g></g></svg>